<svg xmlns="http://www.w3.org/2000/svg"  viewBox="0 0 100 100" width="50px" height="50px"><circle cx="50" cy="50" r="38" fill="#6b96d6"/><path fill="#c9dcf4" d="m77.57,48.4l2.4-.7c-.5-6.58-3.11-12.57-7.16-17.29l-2.19,1.21c-.8.44-1.81.15-2.26-.65-.28-.51-.26-1.12,0-1.6l1.21-2.19c-4.72-4.05-10.71-6.66-17.29-7.16l-.7,2.4c-.26.88-1.18,1.39-2.06,1.13-.56-.16-.98-.61-1.13-1.13l-.7-2.4c-6.58.5-12.57,3.11-17.29,7.16l1.21,2.19c.44.8.15,1.81-.65,2.26-.51.28-1.12.26-1.6,0l-2.19-1.21c-4.05,4.72-6.66,10.71-7.16,17.29l2.4.7c.88.26,1.39,1.18,1.13,2.06-.16.56-.61.98-1.13,1.13l-2.4.7c.5,6.58,3.11,12.57,7.16,17.29l2.19-1.21c.8-.44,1.81-.15,2.26.65.28.51.26,1.12,0,1.6l-1.21,2.19c4.72,4.05,10.71,6.66,17.29,7.16l.7-2.4c.26-.88,1.18-1.39,2.06-1.13.56.16.98.61,1.13,1.13l.7,2.4c6.58-.5,12.57-3.11,17.29-7.16l-1.21-2.19c-.44-.8-.15-1.81.65-2.26.51-.28,1.12-.26,1.6,0l2.19,1.21c4.05-4.72,6.66-10.71,7.16-17.29l-2.4-.7c-.88-.26-1.39-1.18-1.13-2.06.16-.56.61-.98,1.13-1.13Z"/><path fill="#4a254b" d="m50,69.44c-2.24,0-4.26-.45-5.54-1.23-.47-.29-.62-.9-.34-1.37.29-.47.9-.62,1.37-.34.95.58,2.68.94,4.5.94s3.55-.36,4.5-.94c.47-.29,1.09-.14,1.37.34.29.47.14,1.09-.34,1.37-1.28.78-3.3,1.23-5.54,1.23Z"/><circle cx="39" cy="61" r="5" fill="#fff"/><circle cx="39" cy="61" r="2" fill="#4a254b"/><circle cx="61" cy="61" r="5" fill="#fff"/><circle cx="61" cy="61" r="2" fill="#4a254b"/><path fill="#4a254b" d="m62.06,48.33l-9.21-.88-.98-16.34c-.05-.93-.8-1.7-1.76-1.76-1.03-.06-1.92.72-1.98,1.76l-1.13,18.88c0,.1,0,.22,0,.32,0,.02,0,.03,0,.05.1,1.66,1.52,2.92,3.18,2.82l11.88-1.13c.93-.05,1.7-.8,1.76-1.76.06-1.03-.72-1.92-1.76-1.98Z"/></svg>